<?xml version="1.0" encoding="UTF-8"?>
<svg width="346.51pt" height="332.23pt" version="1.1" viewBox="0 0 346.51 332.23" xmlns="http://www.w3.org/2000/svg">
<path d="m208.47 93.85 125.94 21.953" fill="none" stroke="#000" stroke-linecap="round" stroke-linejoin="round" stroke-width="13.328"/>
<path d="m208.47 214.36 125.94-21.894" fill="none" stroke="#000" stroke-linecap="round" stroke-linejoin="round" stroke-width="13.328"/>
<path d="m339.85 154.16-164.25 21.894" fill="none" stroke="#000" stroke-linecap="round" stroke-linejoin="round" stroke-width="13.328"/>
<path d="m66.789 82.37c4.2461-25.719 19.383-48.355 41.531-62.104 22.149-13.75 49.152-17.273 74.088-9.6678 24.933 7.6054 45.375 25.602 56.078 49.371" fill="none" stroke="#000" stroke-linecap="round" stroke-linejoin="round" stroke-width="13.328"/>
<path d="m149.11 217.61c-17.524 18.867-42.879 28.437-68.499 25.852-25.621-2.5898-48.551-17.031-61.947-39.024-13.395-21.992-15.715-48.992-6.2619-72.946 9.4534-23.953 29.582-42.094 54.391-49.012" fill="none" stroke="#000" stroke-linecap="round" stroke-linejoin="round" stroke-width="13.328"/>
<path d="m228.63 256.81c-4.6094 27.785-23.117 51.278-49.055 62.255-25.934 10.98-55.688 7.9178-78.842-8.1133-23.156-16.031-36.496-42.801-35.348-70.941" fill="none" stroke="#000" stroke-linecap="round" stroke-linejoin="round" stroke-width="13.328"/>
</svg>
