<?xml version="1.0" encoding="UTF-8"?>
<svg width="424.62pt" height="373.21pt" version="1.1" viewBox="0 0 424.62 373.21" xmlns="http://www.w3.org/2000/svg">
<g transform="translate(-137.76 -93.826)" fill="#010101">
<path d="m559.44 253.68c-7.8398-59.359-27.441-108.64-35.281-127.12-3.9219-8.9609-12.32-15.68-21.84-17.922-56-12.879-112.56-17.359-167.44-13.441-45.922 3.3594-78.961 12.32-94.641 16.801-11.199 3.3594-19.602 12.879-21.84 24.641l-1.6797 8.9648c-1.6797 9.5195-7.2812 17.359-15.68 22.398-19.039 10.641-34.719 26.32-45.922 44.801-11.762 19.039-17.359 41.441-17.359 63.84 0 33.039 12.879 63.84 36.398 87.359 11.199 11.199 24.078 20.16 38.641 26.32l4e-3 18.48c0 12.32 6.7188 22.961 17.359 28.559 10.078 5.0391 26.32 10.641 49.84 11.199h3.9219c22.961 0 47.602-5.0391 73.922-15.121 5.0391 6.7188 11.199 12.879 21.84 18.48 12.879 6.7188 31.359 11.199 57.68 14 6.7188 0.55859 12.879 1.1211 18.48 1.1211 17.922 0 33.602-2.8008 47.039-8.3984 14-5.6016 20.16-12.32 21.281-14 0.55859-0.55859 0.55859-1.1211 1.1211-1.6797 17.359-28 29.121-60.48 34.16-95.762 3.9141-29.121 3.9141-60.48-4e-3 -93.52zm-22.402 90.719c-4.4805 31.922-14.559 61.039-30.238 86.238-1.6797 1.1211-5.6016 5.0391-14 7.8398-9.5195 3.9219-26.879 7.8398-53.199 5.0391-22.961-2.2383-39.199-6.1602-49.84-11.199-8.3984-4.4805-12.32-9.5195-17.359-16.238v-15.68l-4e-3 -19.598c6.1602 1.1211 13.441 1.6797 20.16 1.6797 6.1602 0 12.32-0.55859 18.48-1.6797 6.1602-1.1211 10.078-6.7188 9.5195-12.879-1.1211-6.1602-6.7188-10.078-12.879-9.5195-5.0391 0.55859-10.078 1.1211-15.121 1.1211-25.199 0-48.719-9.5195-66.078-27.441-17.922-17.922-27.441-41.441-27.441-66.078 0-20.16 6.1602-39.762 18.48-56 11.762-15.68 28.559-27.441 47.039-33.602 6.1602-1.6797 8.9609-7.8398 7.2812-14s-7.8398-8.9609-14-7.2812c-11.762 3.9219-22.398 8.9609-32.48 16.238-4.4805 3.3594-8.9609 6.7188-13.441 11.199-6.1602-7.8398-13.441-14.559-21.281-20.16-5.0391-3.9219-11.762-2.8008-15.68 2.2383-3.9219 5.0391-2.8008 11.762 2.2383 15.68 7.2812 5.6016 14 12.32 19.602 19.602-13.441 19.602-20.719 42.559-20.719 66.078 0 30.801 12.32 59.922 34.16 82.32 11.762 11.762 24.641 20.16 39.762 26.32v37.523c-25.199 9.5195-48.719 14-69.441 13.441-19.039-0.55859-32.48-5.0391-40.32-8.9609-3.3594-1.6797-5.0391-5.0391-5.0391-8.3984v-11.199c8.3984 1.6797 17.359 2.8008 26.32 2.8008 8.3984 0 16.801-1.1211 25.199-2.2383 6.1602-1.1211 10.078-7.2812 8.9609-13.441-1.1211-6.1602-7.2812-10.078-13.441-8.9609-6.7188 1.1211-13.441 2.2383-20.719 2.2383-26.879 0-52.641-10.641-71.68-29.68s-29.68-44.801-29.68-71.68c0-18.48 5.0391-36.398 14.559-52.641 8.9609-15.121 22.398-28 38.078-36.961 14.559-7.8398 24.078-21.84 26.32-38.078l1.6797-8.9609c0.55859-3.3594 2.8008-6.1602 6.1602-7.2812 15.121-4.4805 46.48-12.879 90.16-16.238 52.641-3.9219 106.4 0.55859 160.72 12.879 2.8008 0.55859 5.0391 2.8008 6.1602 5.0391 7.8398 17.359 26.32 64.961 33.602 120.96 3.3633 32.48 3.3633 62.16-0.55859 89.598z"/>
<path d="m441.84 346.08c-1.1211 0.55859-1.6797 0.55859-2.8008 1.6797h-0.55859c-5.6016 3.9219-5.6016 10.641-2.8008 15.121 2.2383 2.8008 5.6016 5.0391 9.5195 5.0391 2.2383 0 4.4805-0.55859 6.1602-2.2383 6.1602-3.9219 6.1602-11.199 3.3594-15.68-2.2383-3.3594-7.2773-6.1602-12.879-3.9219z"/>
</g>
</svg>
